<svg xmlns="http://www.w3.org/2000/svg" xmlns:xlink="http://www.w3.org/1999/xlink" width="200" height="200" version="1.1" viewBox="0 0 200 200"><title>album-placeholder-grid</title><description>Created with Sketch (http://www.bohemiancoding.com/sketch)</description><g id="Page-1" fill="none" fill-rule="evenodd" stroke="none" stroke-width="1"><rect id="Rectangle-1" width="200" height="200" x="0" y="0" fill="#D8D8D8"/><g id="icon_Playlist" transform="translate(70.000000, 70.000000)"><path id="Shape" fill="#000" stroke="#449FDB" opacity="0"/><path id="Shape" fill="#606060" d="M30,0 C13.5,0 0,13.5 0,30 C0,46.5 13.5,60 30,60 C46.5,60 60,46.5 60,30 C59.499375,13.5 46.5,0 30,0 L30,0 Z M30,39.999375 C24.500625,39.999375 20.000625,35.499375 20.000625,30 C20.000625,24.500625 24.500625,20.000625 30,20.000625 C35.499375,20.000625 39.500625,24.500625 39.500625,30 C39.500625,35.499375 35.000625,39.999375 30,39.999375 L30,39.999375 Z"/></g></g></svg>