<svg xmlns="http://www.w3.org/2000/svg" xmlns:xlink="http://www.w3.org/1999/xlink" width="60" height="60" version="1.1" viewBox="0 0 60 60"><title>Slice 1</title><description>Created with Sketch (http://www.bohemiancoding.com/sketch)</description><g id="Page-1" fill="none" fill-rule="evenodd" stroke="none" stroke-width="1"><g id="album-icon"><g id="Page-1"><g id="icon_Playlist"><g id="Layer_40" fill="#000"><path id="Shape" d="M30,0 C13.5,0 0,13.5 0,30 C0,46.5 13.5,60 30,60 C46.5,60 60,46.5 60,30 C59.5,13.5 46.5,0 30,0 L30,0 L30,0 Z M30,40 C24.5,40 20,35.5 20,30 C20,24.5 24.5,20 30,20 C35.5,20 39.5,24.5 39.5,30 C39.5,35.5 35,40 30,40 L30,40 L30,40 Z"/></g></g></g></g></g></svg>