<svg xmlns="http://www.w3.org/2000/svg" xmlns:xlink="http://www.w3.org/1999/xlink" width="16" height="16" version="1.1" viewBox="0 0 16 16"><title>Slice 1</title><description>Created with Sketch (http://www.bohemiancoding.com/sketch)</description><g id="Page-1" fill="none" fill-rule="evenodd" stroke="none" stroke-width="1"><g id="icon_Loader"><g id="Layer_48" fill="#010101"><path id="Shape" d="M16,6.9 C15.3,2.8 11.8,-0.2 7.6,0 C3.5,0.3 0,3.8 0,8 C0,12.1 3.2,15.6 7.2,16 C9.2,16.2 11.2,15.6 12.8,14.4 C14.3,13.2 15.7,11.1 15.5,9.2 C14.8,13 11.3,15.7 7.4,15.3 C3.5,14.9 0.5,11.4 0.9,7.4 C1.3,3.3 5.2,0.5 9.2,1.1 C11,1.4 12.6,2.5 13.7,4 C14.2,4.8 14.6,5.7 14.8,6.6 C14.9,6.9 14.8,7.3 15.1,7.5 C15.5,7.7 16.1,7.4 16,6.9 C15.9,6.6 16,7 16,6.9 L16,6.9 Z"/></g></g></g></svg>