<svg xmlns="http://www.w3.org/2000/svg" xmlns:xlink="http://www.w3.org/1999/xlink" width="16" height="16" x="0" y="0" enable-background="new 0 0 16 16" version="1.1" viewBox="0 0 16 16" xml:space="preserve"><g id="Layer_12"><g><path d="M8,16c-1.3,0-2.7-0.3-3.8-1c-0.8-0.4-1.4-0.9-2-1.6c-0.5-0.5-0.9-1.1-1.3-1.8C0.3,10.5,0,9.3,0,8c0-4.4,3.6-8,8-8 c1.1,0,2.1,0.2,3,0.6l-0.4,0.9C9.8,1.2,8.9,1,8,1C4.1,1,1,4.1,1,8c0,1.1,0.3,2.2,0.8,3.2c0.3,0.6,0.7,1.1,1.1,1.6 c0.5,0.5,1.1,1,1.8,1.4C5.7,14.7,6.8,15,8,15c3.9,0,7-3.1,7-7c0-1-0.2-2-0.6-2.9l0.9-0.4C15.8,5.7,16,6.8,16,8 C16,12.4,12.4,16,8,16z"/></g></g></svg>