<svg xmlns="http://www.w3.org/2000/svg" xmlns:xlink="http://www.w3.org/1999/xlink" width="69" height="69" version="1.1" viewBox="0 0 69 69"><title>resolvers-settings</title><description>Created with Sketch (http://www.bohemiancoding.com/sketch)</description><defs><linearGradient id="linearGradient-1" x1="50%" x2="50%" y1="0%" y2="173.921%"><stop offset="0%" stop-color="#7B7D79"/><stop offset="100%" stop-color="#000"/></linearGradient></defs><g id="Page 1" fill="#D7D7D7" fill-rule="evenodd"><g id="Group" fill="url(#linearGradient-1)"><path id="Shape" d="M42.1880385,52.434112 L42.1880385,51.9015629 L43.3094111,50.7815629 L41.4454894,48.654112 C38.9062737,49.956661 36.0376462,50.7033277 32.9960775,50.7033277 C22.7280383,50.7033277 14.3760775,42.3513669 14.3760775,32.0860727 C14.3760775,21.8180335 22.7280383,13.4660727 32.9960775,13.4660727 C43.2627442,13.4660727 51.6160775,21.8180335 51.6160775,32.0860727 C51.6160775,37.1686218 49.5641167,41.7790136 46.2466658,45.1458771 L47.7386266,47.2047006 L48.7543129,46.1903868 L49.7658815,46.1903868 L59.1005875,58.6229353 C65.200195,52.4396018 68.9733324,43.9531318 68.9733324,34.5813657 C68.9733324,15.6703854 53.6419597,0.336266581 34.7282333,0.336266581 C15.8145069,0.336266581 0.48176243,15.669011 0.48176243,34.5813657 C0.48176243,53.4923459 15.8145069,68.8250903 34.7282333,68.8250903 C40.9033315,68.8250903 46.6790173,67.1670512 51.680586,64.3080317 C47.4586322,59.0552955 42.1880385,52.434112 42.1880385,52.434112 L42.1880385,52.434112 L42.1880385,52.434112"/><path id="Shape" d="M20.9519599,32.0860769 C20.9519599,38.7264688 26.3556855,44.1274491 32.9960771,44.1274491 C39.6378421,44.1274491 45.0401942,38.7264688 45.0401942,32.0860769 C45.0401942,25.4443119 39.6378411,20.0405867 32.9960771,20.0405867 C26.355691,20.0419677 20.9519599,25.444306 20.9519599,32.0860769 C20.9519599,32.0860769 20.9519599,25.444306 20.9519599,32.0860769 L20.9519599,32.0860769"/></g></g></svg>