<svg xmlns="http://www.w3.org/2000/svg" xmlns:xlink="http://www.w3.org/1999/xlink" width="60" height="60" version="1.1" viewBox="0 0 60 60"><title>Slice 1</title><description>Created with Sketch (http://www.bohemiancoding.com/sketch)</description><g id="Page-1" fill="none" fill-rule="evenodd" stroke="none" stroke-width="1"><g id="icon_Search"><g id="Layer_31" fill="#000"><g id="Group"><path id="Shape" d="M58,48.9230769 L58,48.9230769 L47.5,39.2307692 C47.5,42 46.5,44.7692308 44.5,47.0769231 L52.5,54.4615385 C53,55.3846154 54,55.8461538 55.5,55.8461538 C57.5,55.8461538 59.5,54 59.5,52.1538462 C59.5,50.7692308 59,49.8461538 58,48.9230769 L58,48.9230769 Z"/><path id="Shape" d="M25.5,0 C11.5,0 0,10.6153846 0,24 C0,37.3846154 11.5,48 25.5,48 C39.5,48 51,37.3846154 51,24 C51.5,10.6153846 40,0 25.5,0 L25.5,0 Z M25.5,40.6153846 C15.5,40.6153846 7.5,33.2307692 7.5,24 C7.5,14.7692308 15.5,7.38461538 25.5,7.38461538 C35.5,7.38461538 43.5,14.7692308 43.5,24 C43.5,33.2307692 35.5,40.6153846 25.5,40.6153846 L25.5,40.6153846 Z"/></g></g></g></g></svg>