<svg xmlns="http://www.w3.org/2000/svg" xmlns:xlink="http://www.w3.org/1999/xlink" width="200" height="200" version="1.1" viewBox="0 0 200 200"><title>Slice 1</title><description>Created with Sketch (http://www.bohemiancoding.com/sketch)</description><g id="Page-1" fill="none" fill-rule="evenodd" stroke="none" stroke-width="1"><g id="artist-placeholder-grid"><g id="Page-1"><rect id="Rectangle-1" width="200" height="200" x="0" y="0" fill="#D8D8D8"/></g></g><path id="path1534" fill="#606060" d="M77.2802173,70 C79.7365976,70 82.3684337,70.8834095 84.7015769,72.489992 C85.037867,72.7198049 85.3302932,72.9854603 85.643607,73.236357 C85.7835539,73.3502093 85.9339445,73.4619532 86.0738913,73.5800223 C86.2201045,73.7065249 86.36214,73.8351358 86.5020869,73.9658551 C86.6190573,74.0733822 86.7381166,74.1724759 86.8529983,74.2863282 C90.0759529,77.4531088 91.3459183,81.5496831 90.0947519,84.5077348 L90.0947519,111.069054 L113.854382,118.47367 L113.854382,96.1754858 C113.674749,96.1649447 113.495115,96.1333203 113.315481,96.1080197 C113.071099,96.1291019 112.822534,96.1459697 112.565618,96.1459697 C110.111328,96.1459697 107.473225,95.2625609 105.150526,93.6580855 C102.854979,92.0789128 101.094156,89.9578856 100.189722,87.6892736 C99.1766752,85.1528972 99.3375089,82.6038716 100.624185,80.6978996 C101.915038,78.7919277 104.114499,77.7440649 106.813177,77.7440649 C109.263291,77.7440649 111.901394,78.6274744 114.22827,80.2340569 C116.519639,81.8132304 118.280462,83.9321481 119.186984,86.2007605 C119.466877,86.9028497 119.650688,87.6028305 119.753038,88.2943778 C120.189588,89.9368026 120.1687,91.543385 119.592203,92.9053959 L119.592203,126.491825 C119.592203,126.569835 119.592203,126.643628 119.57967,126.717421 L119.57967,127.794801 C119.57967,128.494782 119.249646,129.154704 118.694037,129.570053 C118.136338,129.987512 117.419894,130.107689 116.749402,129.901069 L85.8420391,120.265791 C84.9250741,119.98116 84.3005352,119.12516 84.3005352,118.157415 C84.3005352,112.700938 84.3109791,107.236028 84.3235116,101.758468 C84.3360447,97.2823834 84.3443991,92.7957609 84.3506659,88.3028117 C83.9245592,88.3618461 83.4921856,88.4040135 83.0347477,88.4040135 C80.5783673,88.4040135 77.9444427,87.5184955 75.6175654,85.9140211 C73.3220197,84.3327391 71.5674624,82.2159303 70.6609412,79.9473174 C69.6478931,77.4088328 69.8045502,74.8598065 71.095403,72.9538347 C72.384167,71.0478629 74.5815413,70 77.2802173,70 Z" transform="translate(95.000000, 100.000000) scale(1, -1) translate(-95.000000, -100.000000)"/></g></svg>